<svg width="308" height="308" viewBox="0 0 308 308" fill="none" xmlns="http://www.w3.org/2000/svg">
<rect width="308" height="308" rx="32" fill="#E83A1C"/>
<path d="M225.8 265C222.486 265 219.8 262.314 219.8 259V251.9C219.8 248.586 217.114 245.9 213.8 245.9H206.7C203.386 245.9 200.7 243.214 200.7 239.9V232.8C200.7 229.486 203.386 226.8 206.7 226.8H213.8C217.114 226.8 219.8 224.114 219.8 220.8V213.7C219.8 210.386 222.486 207.7 225.8 207.7H232.9C236.214 207.7 238.9 210.386 238.9 213.7V220.8C238.9 224.114 241.586 226.8 244.9 226.8H252C255.314 226.8 258 229.486 258 232.8V239.9C258 243.214 255.314 245.9 252 245.9H244.9C241.586 245.9 238.9 248.586 238.9 251.9V259C238.9 262.314 236.214 265 232.9 265H225.8ZM86.1 245.9C80.8475 245.9 76.3526 244.031 72.6154 240.294C68.8782 236.557 67.0064 232.059 67 226.8V93.1C67 87.8475 68.8718 83.3526 72.6154 79.6154C76.359 75.8782 80.8539 74.0064 86.1 74H124.3C129.552 74 134.051 75.8718 137.794 79.6154C141.538 83.359 143.406 87.8539 143.4 93.1V226.8C143.4 232.052 141.531 236.551 137.794 240.294C134.057 244.038 129.559 245.906 124.3 245.9H86.1ZM181.839 241.602C182.086 243.826 180.417 245.923 178.221 245.499C174.486 244.777 171.197 243.08 168.354 240.409C164.458 236.748 162.506 232.212 162.5 226.8V93.1C162.5 87.8475 164.372 83.3526 168.115 79.6154C171.859 75.8782 176.354 74.0064 181.6 74H219.8C225.052 74 229.551 75.8718 233.294 79.6154C237.038 83.359 238.906 87.8539 238.9 93.1V184.725C238.9 187.224 236.611 189.087 234.125 188.839C232.533 188.68 230.942 188.6 229.35 188.6C215.98 188.6 204.641 193.337 195.333 202.81C186.025 212.284 181.447 223.703 181.6 237.066C181.6 238.658 181.68 240.17 181.839 241.602Z" fill="#F5F2F2"/>
</svg>
